<?xml version="1.0" encoding="utf-8"?>
<!-- Generator: Adobe Illustrator 23.0.1, SVG Export Plug-In . SVG Version: 6.00 Build 0)  -->
<svg version="1.1" id="Capa_1" xmlns="http://www.w3.org/2000/svg" xmlns:xlink="http://www.w3.org/1999/xlink" x="0px" y="0px"
	 viewBox="0 0 100 87.8" style="enable-background:new 0 0 100 87.8;" xml:space="preserve">
<style type="text/css">
	.st0{fill:#FFFFFF;}
</style>
<title>party-dj</title>
<path class="st0" d="M35.1,41.5c1-0.9,2.1-1.8,3.2-2.7c0.2,7.7,0.7,15.5,0.7,15.8l16.8,0.1c-0.3-2.9-0.8-16.3-0.6-23
	c0.2-0.2,0.4-0.4,0.6-0.7c5.5-7.1,9.5-15.3,12-23.9c1.6-5.4-6.7-8.6-8.2-3.1c-1.8,6.4-4.5,12.4-8.1,17.9c-3.9-2.5-9.1-1.4-11.6,2.6
	c-0.3,0.5-0.5,0.9-0.7,1.4c-0.2,0.2-0.4,0.3-0.6,0.5c-0.1,0.1-0.2,0.2-0.3,0.3c0-4.5-7.3-6.1-8.7-1.1c-1.1,3.8-1.2,7.7-1.7,11.6
	C27.1,41.5,31.6,44.6,35.1,41.5z"/>
<path class="st0" d="M31,16.2L31,16.2c0.1,1.1,0.9,1.9,2,1.9c0.9,0,1.7-0.8,1.8-1.7c1.9,3.8,6.6,5.4,10.4,3.5c1.5-0.8,2.7-2,3.5-3.5
	c0.1,1,1,1.8,2.1,1.7c0.9-0.1,1.7-0.8,1.7-1.8v-0.1c0.7,0,1.2-0.5,1.2-1.2c0,0,0,0,0,0v-5c0-0.7-0.6-1.2-1.2-1.2l0,0V8.7
	c0-0.7-0.4-1.3-1-1.6C49.8,1.6,44-1.3,38.6,0.4C35.5,1.5,33,3.9,32,7c-0.6,0.3-1,1-1,1.6v0.1c-0.7,0-1.2,0.6-1.2,1.2v5
	C29.8,15.7,30.3,16.2,31,16.2z M41.8,1.9c3.4,0,6.5,2.1,7.8,5.3c-0.5,0.4-0.8,0.9-0.8,1.6v0.7C46.8,5.5,42.1,4,38.3,5.9
	c-1.5,0.8-2.7,2-3.5,3.5V8.7c0-0.6-0.3-1.2-0.8-1.5C35.3,4,38.3,1.9,41.8,1.9z"/>
<rect y="57.5" class="st0" width="100" height="30.2"/>
<rect x="8.2" y="51.7" class="st0" width="23.3" height="4.2"/>
<rect x="66.5" y="51.7" class="st0" width="23.3" height="4.2"/>
</svg>
