<?xml version="1.0" encoding="utf-8"?>
<!-- Generator: Adobe Illustrator 23.0.1, SVG Export Plug-In . SVG Version: 6.00 Build 0)  -->
<svg version="1.1" id="Capa_1" xmlns="http://www.w3.org/2000/svg" xmlns:xlink="http://www.w3.org/1999/xlink" x="0px" y="0px"
	 viewBox="0 0 97.6 100" style="enable-background:new 0 0 97.6 100;" xml:space="preserve">
<style type="text/css">
	.st0{fill:#FFFFFF;}
</style>
<title>party</title>
<path class="st0" d="M34,55.7v13.2c0.1,1.1,1,1.9,2.1,1.8c1-0.1,1.7-0.8,1.8-1.8v-12l-6.1-6.5C30.5,49,30,47,30.4,45.1l1.4-6.1h-1.7
	l1.3-2c0.3,0.1,0.6,0.2,0.9,0.3c0.7-2.1,2.6-3.6,4.8-3.8h0.6v-6.3c0-1.1-0.9-1.9-1.9-1.9s-1.9,0.9-1.9,1.9l0,0v2.3
	c-0.2,0-0.5-0.1-0.7-0.1c-0.2,0-0.5,0-0.7,0.1V24c0.1-1.1-0.7-2-1.8-2.1s-2,0.7-2.1,1.8c0,0.1,0,0.2,0,0.3v10.5l-0.9,1.4l-0.9-1.4
	V24c0-1.1-0.9-1.9-1.9-1.9s-1.9,0.9-1.9,1.9v5.5c-0.2,0-0.5-0.1-0.7-0.1c-0.5,0-1,0.1-1.4,0.3v-9c0-1.1-0.9-1.9-1.9-1.9
	s-1.9,0.9-1.9,1.9v10.5L15.6,33v-9c0-1.1-0.9-1.9-1.9-1.9s-1.9,0.9-1.9,1.9c0,0,0,0,0,0v2.4c-0.5-0.2-0.9-0.3-1.4-0.2
	c-2.2,0-4,1.8-4,4s1.8,4,4,4c0.5,0,1-0.1,1.4-0.3V35c0,0.2,0,0.5,0.1,0.7h-5l-3-4.5V20.7c0-1.1-0.9-1.9-1.9-1.9S0,19.6,0,20.7l0,0
	v11.1c0,0.4,0.1,0.8,0.4,1.1l5.2,7.9v8.5c0,0.1,0,0.3,0,0.4v16.1c0,1.1,0.9,1.9,1.9,1.9c1.1,0,1.9-0.9,1.9-1.9V52.4h1.9v13.3
	c0,1.1,0.9,1.9,1.9,1.9s1.9-0.9,1.9-1.9V49.5c0-0.1,0-0.3,0-0.4v-8.4l2.1,3.3v8.4c0,0.1,0,0.3,0,0.4v16.1c0,1.1,0.9,1.9,1.9,1.9
	s1.9-0.9,1.9-1.9V55.7H23v13.2c0.1,1.1,1,1.9,2.1,1.8c1-0.1,1.7-0.8,1.8-1.8V52.8c0-0.1,0-0.3,0-0.4V44l0.7-1.1l0.6,1.1v8.4
	c0,0.1,0,0.3,0,0.4v16.1c0,1.1,0.9,1.9,1.9,1.9s1.9-0.9,1.9-1.9V55.7H34z M22,39h-3.4l-1.2-1.8l1.2-1.8c0.7,1.2,2,2,3.5,2
	c0.6,0,1.1-0.2,1.7-0.4l1.3,2H22z"/>
<path class="st0" d="M42,35.5c0.4-0.6,0.8-1.2,1.3-1.7c0.4-0.4,0.9-0.8,1.4-1.2c0.6-0.4,1.2-0.7,1.8-1v-3.1c0-1.1-0.9-1.9-1.9-1.9
	l0,0c-0.5,0-0.9,0.2-1.2,0.5V24c0.1-1.1-0.7-2-1.8-2.1c-1.1-0.1-2,0.7-2.1,1.8c0,0.1,0,0.2,0,0.3v9.8C40.5,34.1,41.4,34.7,42,35.5
	L42,35.5z"/>
<polygon class="st0" points="40.8,59.9 39.3,58.3 39.3,69.9 40.8,68 "/>
<path class="st0" d="M95.2,20.2c-1.1,0-1.9,0.9-1.9,1.9c0,0,0,0,0,0v10.5l-3,4.6h-5c0.1-0.2,0.1-0.5,0.1-0.7v-1.2
	c0.4,0.2,0.9,0.2,1.4,0.2c2.2,0,4-1.8,4-4s-1.8-4-4-4c-0.5,0-1,0.1-1.4,0.2v-2.4c0-1.1-0.9-1.9-1.9-1.9s-1.9,0.9-1.9,1.9v9l-1.2-1.8
	V22.1c0-1.1-0.9-1.9-1.9-1.9s-1.9,0.9-1.9,1.9v9c-0.4-0.2-0.9-0.3-1.4-0.3c-0.2,0-0.5,0-0.7,0.1v-5.5c-0.1-1.1-1-1.9-2.1-1.8
	c-1,0.1-1.7,0.8-1.8,1.8v10.5l-0.9,1.4l-0.2-0.2v7.5l0.2-0.2l0.7,1.1v8.5c0,0.1,0,0.3,0,0.4v16.1c0,1.1,0.9,1.9,1.9,1.9
	s1.9-0.9,1.9-1.9V57.1H76v13.3c0.1,1.1,1,1.9,2.1,1.8c1-0.1,1.7-0.8,1.8-1.8V54.3c0-0.1,0-0.3,0-0.4v-8.5l2.2-3.2v8.4
	c0,0.1,0,0.3,0,0.4v16.1c0,1.1,0.9,1.9,1.9,1.9s1.9-0.9,1.9-1.9V53.8h1.9v13.3c0.1,1.1,1,1.9,2.1,1.8c1-0.1,1.7-0.8,1.8-1.8V51
	c0-0.1,0-0.3,0-0.4v-8.5l5.1-7.9c0.2-0.3,0.3-0.7,0.3-1.1V22.1C97.1,21,96.3,20.2,95.2,20.2C95.2,20.2,95.2,20.2,95.2,20.2z
	 M78.5,40.5h-6.4l1.3-2c1.9,0.9,4.1,0.2,5.1-1.6l1.2,1.8L78.5,40.5z"/>
<path class="st0" d="M68.8,47.2c-0.1,0.2-0.2,0.4-0.4,0.7l-7.6,11.5v12c0,0.3,0.1,0.6,0.1,0.8v0.1h0.2c1.1,0,1.9-0.8,1.9-1.9
	c0,0,0,0,0,0V57.1H65v13.3c0.1,1.1,1,1.9,2.1,1.8c1-0.1,1.7-0.8,1.8-1.8V54.3c0-0.1,0-0.3,0-0.4L68.8,47.2L68.8,47.2z"/>
<path class="st0" d="M57.6,25.4c0-1.1-0.9-1.9-1.9-1.9s-1.9,0.9-1.9,1.9v0.3c-0.3-0.3-0.8-0.5-1.2-0.5c-1.1,0-1.9,0.9-1.9,1.9V31
	c1.1,0,2.2,0.3,3.2,0.7c0.2,0.1,0.5,0.2,0.7,0.3c1.2,0.6,2.3,1.4,3.2,2.5L57.6,25.4L57.6,25.4z"/>
<path class="st0" d="M15.9,16.9c1.1-1.6,1.2-3.6,0.2-5.3c-1-1.8-5.5-5.2-3-7.2c1.4-1.1-0.6-3-1.9-1.9C9.6,3.8,9.4,5.8,10,7.6
	c0.8,2.5,5.7,5.1,3.6,7.9C12.4,17,14.8,18.3,15.9,16.9z"/>
<path class="st0" d="M87.4,5.2c1.8-0.2,1.2-2.9-0.6-2.7c-2.1,0.2-3.3,1.8-3.8,3.7c-0.7,2.5,2,7.4-1.3,8.6c-1.7,0.6-0.4,3,1.2,2.4
	c1.8-0.7,3-2.4,3.1-4.3C86.2,10.9,84.3,5.5,87.4,5.2z"/>
<path class="st0" d="M33.7,16.6c0.3,1.9,1.6,3.5,3.5,4c1.7,0.4,2.7-2.1,1-2.6c-3.4-0.9-1.2-6-2.1-8.4c-0.8-1.8-2.1-3.3-4.2-3.3
	c-1.8,0-2.1,2.7-0.3,2.7C34.7,9.1,33.4,14.6,33.7,16.6z"/>
<path class="st0" d="M67.2,6.8C68,5,68.1,3,66.7,1.5c-1.2-1.3-3.4,0.4-2.2,1.7c2.2,2.3-2.7,5.1-4,6.8c-1.2,1.5-1.4,3.6-0.4,5.3
	c0.9,1.5,3.4,0.5,2.5-1.1C60.9,11.1,66.2,9.2,67.2,6.8z"/>
<path class="st0" d="M42.5,9.7c0.7,1.8,2.4,2.9,4.3,3c1.7,0,2.1-2.7,0.3-2.7c-3.5,0-2.5-5.5-4.1-7.7c-1.1-1.6-2.8-2.7-4.8-2.2
	c-1.7,0.4-1.4,3.1,0.3,2.7C41.7,2.1,41.7,7.8,42.5,9.7z"/>
<path class="st0" d="M23.1,17.2c1.1,0,1.9-0.9,1.9-1.9s-0.9-1.9-1.9-1.9s-1.9,0.9-1.9,1.9S22,17.2,23.1,17.2z"/>
<path class="st0" d="M4.7,11.7c1.1,0,1.9-0.9,1.9-1.9S5.7,7.8,4.7,7.8S2.8,8.7,2.8,9.8S3.6,11.7,4.7,11.7z"/>
<path class="st0" d="M56.3,2.9c-1.1,0-1.9,0.9-1.9,1.9c0,1.1,0.9,1.9,1.9,1.9c1.1,0,1.9-0.9,1.9-1.9C58.2,3.8,57.3,2.9,56.3,2.9z"/>
<path class="st0" d="M52.7,16.6c1.1,0,1.9-0.9,1.9-1.9s-0.9-1.9-1.9-1.9s-1.9,0.9-1.9,1.9S51.6,16.6,52.7,16.6z"/>
<path class="st0" d="M73.8,10.9c1.1,0,1.9-0.9,1.9-1.9S74.9,7,73.8,7l0,0c-1.1,0-1.9,0.9-1.9,1.9S72.8,10.9,73.8,10.9z"/>
<path class="st0" d="M95.8,11.1c-2.5,0-2.5,3.8,0,3.8c1.1-0.1,1.9-1,1.8-2.1C97.5,12,96.8,11.2,95.8,11.1z"/>
<path class="st0" d="M59.2,56.9l7-10.5c0.3-0.5,0.5-1.1,0.5-1.6v-21c0-0.1,0-0.1,0-0.2c-0.3-1.6-1.8-2.7-3.4-2.5
	c-1.4,0.2-2.4,1.3-2.5,2.7v20.1L59.2,46l-3.2,4.8H44.2l-5-5.3l1-4.1l0.4-1.6l0,0c0-0.1,0-0.2,0-0.2c0,0,0-0.1,0-0.1
	c0-0.3,0-0.7-0.1-1c-0.3-1.1-1.1-2-2.2-2.2l0,0c-0.2-0.1-0.4-0.1-0.7-0.1l0,0c-1.4,0-2.5,1-2.8,2.3L34.7,39l-0.2,0.8l-1.4,6
	c-0.2,1,0,2,0.7,2.8l4.1,4.4l1.4,1.5l4.2,4.5l0,0V69l-0.4,0.5l-3.3,4l-6.3,7.6c-1,1.2-0.9,3,0.3,4.1l7.6,7c1,1.3,2.9,1.5,4.2,0.4
	c1.3-1,1.5-2.9,0.4-4.2c-0.2-0.2-0.4-0.4-0.7-0.6L40,82.7l5-6.1h7.3V97c0,1.7,1.3,3,3,3s3-1.3,3-3V72.2c0-0.2,0-0.4-0.1-0.6v-13
	L59.2,56.9z"/>
<path class="st0" d="M43.5,42.2c0.5,1.9,1.7,3.5,3.4,4.4c0.6,0.3,1.3,0.6,2,0.7c0.4,0.1,0.9,0.1,1.3,0.1c3.3,0,6.1-2.3,6.7-5.5
	c0.1-0.4,0.1-0.9,0.1-1.4c0-0.5-0.1-1.1-0.2-1.6c-0.4-1.5-1.2-2.9-2.5-3.9c-0.2-0.2-0.5-0.3-0.7-0.5c-1-0.6-2.1-0.9-3.2-1h-0.3
	c-1.3,0-2.5,0.3-3.6,1c-1.8,1.1-3,3-3.2,5.1c0,0,0,0.1,0,0.1c0,0.2,0,0.4,0,0.6v0.1c0,0.2,0,0.4,0,0.7
	C43.4,41.5,43.4,41.8,43.5,42.2z"/>
</svg>
