<?xml version="1.0" encoding="utf-8"?>
<!-- Generator: Adobe Illustrator 23.0.1, SVG Export Plug-In . SVG Version: 6.00 Build 0)  -->
<svg version="1.1" id="Layer_1" xmlns="http://www.w3.org/2000/svg" xmlns:xlink="http://www.w3.org/1999/xlink" x="0px" y="0px"
	 viewBox="0 0 97.4 96" style="enable-background:new 0 0 97.4 96;" xml:space="preserve">
<style type="text/css">
	.st0{fill:#FFFFFF;}
</style>
<title>vr-tour</title>
<path class="st0" d="M48.7,0C21.4,0,0,9.9,0,22.6V77c0,7.9,7.9,14.7,21.6,18.9c1.4,0.4,3-0.4,3.4-1.8c0.1-0.3,0.1-0.5,0.1-0.8V63.1
	c8-2.2,16.4-3.3,24.7-3.2c7.5,0,15,0.8,22.3,2.6v30.8c0,1.5,1.2,2.7,2.7,2.7c0,0,0,0,0,0c0.3,0,0.5,0,0.8-0.1
	c13.8-4.1,21.7-11,21.7-18.9V22.6C97.4,9.9,76,0,48.7,0z M19.7,89.4C10.8,86.2,5.5,81.5,5.5,77c0-3.9,3.8-7,6.9-9l-2.9-4.7
	c-1.4,0.9-2.8,1.9-4,3V33.2c3.3,3,8.1,5.6,14.2,7.6v18.3c-1.5,0.5-2.8,1.1-4.2,1.7l2.3,5c0.6-0.3,1.3-0.6,1.9-0.8V89.4z M49.9,54.4
	c-8.3-0.1-16.6,1-24.7,3V38.8c0-1.2-0.8-2.3-2-2.6C12.3,32.9,5.5,27.7,5.5,22.6c0-8.1,17.8-17.1,43.2-17.1s43.2,9,43.2,17.1
	c0,5.1-6.8,10.4-17.8,13.7c-1.2,0.3-2,1.4-2,2.6v18C64.8,55.2,57.3,54.4,49.9,54.4L49.9,54.4z M77.6,89.5V64.1
	c1.2,0.4,2.4,0.9,3.5,1.4l2.2-5c-1.8-0.8-3.7-1.5-5.7-2.1V40.8c6.1-2,11-4.6,14.3-7.6v33.1c-1-0.9-2.1-1.7-3.2-2.4l-3,4.6
	c2.8,1.9,6.2,4.9,6.2,8.5C91.9,81.5,86.5,86.2,77.6,89.5z"/>
<polygon class="st0" points="53,16 37.4,16 37.4,38.3 30.8,38.3 30.8,48.6 66.6,48.6 66.6,34.1 53,34.1 "/>
<rect x="58.5" y="22.3" class="st0" width="5.5" height="6.2"/>
</svg>
